<?xml version="1.0" encoding="UTF-8"?>
<svg xmlns="http://www.w3.org/2000/svg" width="100" height="102.19801" version="1.1" viewBox="0 0 99.999999 102.19801">
   <path d="m 58.363023,101.45119 q 5.309442,-1.22526 8.47469,-4.696817 3.16524,-3.471553 4.798913,-6.943113 2.042094,-4.2884 2.654727,-9.18942 4.696813,0.612626 9.189413,-0.40842 3.87998,-1.021047 7.86206,-3.879974 3.982087,-2.858933 6.432594,-8.985213 3.26735,-7.759954 1.73578,-13.886233 -1.531567,-6.12628 -4.594707,-10.414675 -3.675767,-5.105234 -9.18942,-8.781001 0.816833,-4.696815 0.40842,-9.393629 -0.40842,-4.084186 -1.73578,-8.474687 Q 83.072353,12.007508 79.39658,8.33174 75.720813,4.6559725 72.147153,2.8180886 68.573486,0.98020473 65.10193,0.36757677 61.630372,-0.24505118 58.363023,0.16336745 55.095674,0.57178609 52.440953,1.5928327 45.702045,3.8391352 39.984185,9.556996 36.104207,6.4938563 31.611603,5.2686004 27.527416,4.2475538 22.320079,4.9622865 17.112741,5.677019 10.782252,10.578043 3.8391352,15.887485 2.2054607,22.422183 0.57178609,28.956881 1.3886234,34.878952 2.2054607,41.617859 5.4728097,48.765185 2.4096699,53.666209 0.98020473,58.975651 -0.24505118,63.468256 0.06126279,68.8798 q 0.30631398,5.411553 4.39050031,10.720993 4.4926049,5.922067 9.1894199,7.86206 4.696814,1.939987 8.576791,2.144193 4.492605,0.204214 8.781001,-1.633673 2.450512,4.901027 6.330488,8.37258 3.471559,2.858933 8.576792,4.798917 5.105233,1.94 12.456768,0.30632 z m -1.837884,-4.696817 q -6.534698,1.429467 -11.027303,-0.612627 -4.492605,-2.042093 -7.351535,-5.105233 -3.267349,-3.675767 -5.105233,-8.781 -3.879977,2.042093 -7.964163,2.65472 -3.471559,0.40842 -7.759955,-0.91894 Q 13.028555,82.663933 8.7401586,77.5587 4.6559725,73.066093 4.4517631,68.062966 4.2475538,63.059838 5.8812284,58.771442 7.5149026,53.666209 11.190671,48.969395 7.719112,42.434697 6.6980653,36.104207 5.677019,30.794765 7.2085886,24.668486 8.7401586,18.542206 15.479067,13.641183 20.38009,9.9654146 24.872695,9.7612053 29.3653,9.556996 32.836859,10.578043 q 4.084186,1.225256 7.759954,4.084186 5.309442,-5.5136517 11.231512,-7.9641637 5.105233,-2.2463022 11.435721,-1.7357788 6.330487,0.5105232 13.0694,7.2494305 3.267347,3.06314 4.288394,7.249431 1.021046,4.186291 1.021046,8.066268 0,4.492605 -1.021046,9.189419 6.12628,2.654722 9.29152,6.841013 3.165246,4.186291 4.390506,8.270477 1.225254,4.084186 0.91894,7.555745 -0.306313,3.471558 -0.91894,4.901023 -2.654726,5.922073 -6.4326,8.576793 -3.777866,2.65472 -7.45364,3.267347 -4.288393,0.81684 -8.985206,-0.204207 -0.612627,4.90102 -2.450514,9.18942 -1.633673,3.675767 -4.594708,7.04522 -2.961035,3.369454 -7.862059,4.594707 z M 58.771442,50.39886 q 0,-4.492605 -2.858931,-7.657849 -2.85893,-3.165245 -6.943116,-3.369454 -4.084187,0 -7.147326,3.06314 -3.06314,3.063139 -3.06314,7.555744 0,4.492605 2.961035,7.657849 2.961035,3.165245 7.045221,3.165245 4.084187,0.204209 7.045221,-2.961035 2.961036,-3.165245 2.961036,-7.45364 z" />
</svg>
