<?xml version="1.0" encoding="UTF-8" standalone="no"?>
<svg
   xmlns="http://www.w3.org/2000/svg"
   version="1.1"
   width="100.00158"
   height="15.02">
  <path
     d="m 50.000789,9.2886841 h 17.193947 v 3.7549999 q 0,0.592895 0.197631,1.383421 Q 67.787631,15.02 68.380526,15.02 L 97.432367,9.0910525 q 1.18579,-0.1976316 1.976317,-0.5928947 0.592896,-0.5928948 0.592896,-0.9881579 0,-0.3952631 -0.592896,-0.9881579 Q 98.815788,6.1265789 97.629998,5.9289474 L 68.775789,0 H 67.985263 Q 67.194736,0.19763158 67.194736,1.1857895 V 5.5336841 H 50.000789 Z m 0,-3.755 H 33.794999 V 1.1857895 Q 33.794999,0 32.806842,0 H 32.016315 L 3.5573684,5.9289474 Q 2.3715789,6.1265789 1.5810526,6.521842 0.98815788,7.1147368 0.98815788,7.5099999 q 0,0.3952631 0.59289472,0.9881579 Q 1.9763158,8.6957894 2.5692105,8.8934209 3.3597368,9.2886841 17.786842,12.154342 32.213947,15.02 32.609211,15.02 q 0.790525,0 0.988157,-0.790526 0.197631,-0.790527 0.197631,-1.18579 V 9.2886841 h 16.20579 z M 0,7.5099999 h 99.803947 z" />
</svg>
