<?xml version="1.0" encoding="UTF-8" standalone="no"?>
<svg xmlns="http://www.w3.org/2000/svg" version="1.1" width="49.997341" height="8.5450001">
   <path d="m 49.542819,4.4543085 q 0.181809,0.1818086 0.363617,0 0.181808,-0.1818085 0,-0.3636169 L 45.906649,0.09090425 q -0.181809,-0.1818085 -0.363617,0 -0.181808,0.18180852 0,0.36361703 z m -3.999787,3.6361701 q -0.181808,0.1818088 0,0.3636172 0.181808,0.1818084 0.363617,0 l 3.999787,-3.9997873 q 0.181808,-0.1818085 0,-0.3636169 -0.181808,-0.1818087 -0.363617,0 z M 1.5090106,3.9452447 q -0.2908936,0 -0.2908936,0.3272553 0,0.3272554 0.2908936,0.3272554 H 48.488329 q 0.290894,0 0.290894,-0.3272554 0,-0.3272553 -0.290894,-0.3272553 z M 4.4543085,0.45452128 q 0.1818086,-0.18180851 0,-0.36361703 -0.1818085,-0.1818085 -0.3636169,0 L 0.09090425,4.0906916 q -0.1818085,0.1818084 0,0.3636169 0.18180852,0.1818086 0.36361703,0 z M 0.45452128,4.0906916 q -0.18180851,-0.1818087 -0.36361703,0 -0.1818085,0.1818084 0,0.3636169 L 4.0906916,8.4540958 q 0.1818084,0.1818084 0.3636169,0 0.1818086,-0.1818084 0,-0.3636172 z" id="path2" style="stroke-width:0.0363618" />
</svg>
