<?xml version="1.0" encoding="UTF-8" standalone="no"?>
<svg version="1.1" width="17.200001" height="50"
   xmlns="http://www.w3.org/2000/svg"
   xmlns:svg="http://www.w3.org/2000/svg">
   <path d="m 17.2,31.1 q 0,0.8 -0.45,1.2 -0.45,0.4 -1.05,0.4 -0.6,0 -1.05,-0.4 Q 14.2,31.9 14.2,31.1 V 1.6 Q 14.2,0.8 14.65,0.4 15.1,0 15.7,0 16.3,0 16.75,0.4 17.2,0.8 17.2,1.6 Z M 3,48.4 Q 3,49.2 2.55,49.6 2.1,50 1.5,50 0.9,50 0.45,49.6 0,49.2 0,48.4 V 18.9 Q 0,18.1 0.45,17.7 0.9,17.3 1.5,17.3 2.1,17.3 2.55,17.7 3,18.1 3,18.9 Z" />
</svg>
