<?xml version="1.0" encoding="UTF-8" standalone="no"?>
<svg
   xmlns:dc="http://purl.org/dc/elements/1.1/"
   xmlns:cc="http://creativecommons.org/ns#"
   xmlns:rdf="http://www.w3.org/1999/02/22-rdf-syntax-ns#"
   xmlns:svg="http://www.w3.org/2000/svg"
   xmlns="http://www.w3.org/2000/svg"
   xmlns:sodipodi="http://sodipodi.sourceforge.net/DTD/sodipodi-0.dtd"
   xmlns:inkscape="http://www.inkscape.org/namespaces/inkscape"
   version="1.1"
   x="0px"
   y="0px"
   viewBox="0 0 980 980"
   enable-background="new 0 0 1000 1000"
   xml:space="preserve"
   id="svg14"
   sodipodi:docname="5d62ba140b36149b460039da5266d115.svg"
   width="980"
   height="980"
   inkscape:version="1.0.2-2 (e86c870879, 2021-01-15)"><defs
   id="defs18" /><sodipodi:namedview
   pagecolor="#ffffff"
   bordercolor="#666666"
   borderopacity="1"
   objecttolerance="10"
   gridtolerance="10"
   guidetolerance="10"
   inkscape:pageopacity="0"
   inkscape:pageshadow="2"
   inkscape:window-width="3840"
   inkscape:window-height="1137"
   id="namedview16"
   showgrid="false"
   fit-margin-top="0"
   fit-margin-left="0"
   fit-margin-right="0"
   fit-margin-bottom="0"
   inkscape:zoom="0.97"
   inkscape:cx="490"
   inkscape:cy="490"
   inkscape:window-x="-8"
   inkscape:window-y="-8"
   inkscape:window-maximized="1"
   inkscape:current-layer="svg14" />
<metadata
   id="metadata2"> Svg Vector Icons : http://www.onlinewebfonts.com/icon <rdf:RDF><cc:Work
     rdf:about=""><dc:format>image/svg+xml</dc:format><dc:type
       rdf:resource="http://purl.org/dc/dcmitype/StillImage" /><dc:title></dc:title></cc:Work></rdf:RDF></metadata>
<g
   id="g12"
   transform="translate(-10,-10)"><path
     d="M 826.7,990 H 173.3 C 83.5,990 10,916.5 10,826.7 V 173.3 C 10,83.5 83.5,10 173.3,10 H 826.6 C 916.5,10 990,83.5 990,173.3 V 826.6 C 990,916.5 916.5,990 826.7,990 Z M 173.3,91.7 c -44.9,0 -81.7,36.8 -81.7,81.7 v 653.3 c 0,44.9 36.7,81.7 81.7,81.7 h 653.3 c 44.9,0 81.7,-36.8 81.7,-81.7 V 173.3 c 0,-44.9 -36.8,-81.7 -81.7,-81.7 H 173.3 Z"
     id="path4" /><path
     d="m 336.7,990 c -24.5,0 -40.8,-16.3 -40.8,-40.8 V 50.8 c 0,-24.5 16.3,-40.8 40.8,-40.8 24.5,0 40.8,16.3 40.8,40.8 v 898.3 c 0,24.6 -16.3,40.9 -40.8,40.9 z"
     id="path6" /><path
     d="m 581.7,540.8 c -12.2,0 -20.4,-4.1 -28.6,-12.3 -16.3,-16.3 -16.3,-40.8 0,-57.2 L 675.6,348.8 c 16.3,-16.3 40.8,-16.3 57.2,0 16.4,16.3 16.3,40.8 0,57.2 L 610.3,528.6 c -8.2,8.2 -16.4,12.2 -28.6,12.2 z"
     id="path8" /><path
     d="m 704.2,663.3 c -12.2,0 -20.4,-4.1 -28.6,-12.3 L 553.1,528.6 c -16.3,-16.3 -16.3,-40.8 0,-57.2 16.3,-16.3 40.8,-16.3 57.2,0 l 122.5,122.5 c 16.3,16.3 16.3,40.8 0,57.2 -8.2,8.2 -16.4,12.2 -28.6,12.2 z"
     id="path10" /></g>
</svg>
