<?xml version="1.0" encoding="UTF-8" standalone="no"?>
<svg version="1.1" x="0px" y="0px" viewBox="0 0 50.000001 50.573073" width="50" height="50.573074"
   xmlns="http://www.w3.org/2000/svg"
   xmlns:svg="http://www.w3.org/2000/svg">
   <g transform="matrix(0.40211458,0,0,0.40211458,0,-8.7449077e-4)">
      <path fill="#ffffff" d="M 2.8,19.56 61.05,0.17 c 0.7,-0.24 1.42,-0.21 2.07,0.01 V 0.17 l 59.01,20.21 c 1.45,0.49 2.33,1.9 2.2,3.37 0.01,0.07 0.01,0.15 0.01,0.24 v 68.63 h -0.01 c 0,1.19 -0.65,2.33 -1.79,2.91 L 63.95,125.3 c -0.49,0.3 -1.07,0.47 -1.69,0.47 -0.66,0 -1.26,-0.19 -1.77,-0.52 L 1.76,94.61 C 0.65,94.03 0.01,92.9 0.01,91.72 H 0 V 22.8 c 0,-1.65 1.22,-3.01 2.8,-3.24 z m 71.99,39.17 c 2.92,-1.42 5.82,-2.83 8.73,-4.23 2.9,-1.4 5.79,-2.79 8.69,-4.18 3.41,-1.64 6.19,-2.45 8.36,-2.46 2.18,-0.01 4.05,0.57 5.61,1.73 1.57,1.16 2.8,2.78 3.7,4.87 0.91,2.09 1.53,4.45 1.86,7.12 0.52,4.16 0.45,7.63 -0.25,10.42 -0.69,2.79 -1.84,5.43 -3.43,7.91 -1.6,2.49 -3.41,4.53 -5.43,6.14 -2.76,2.2 -5.3,3.92 -7.61,5.13 -3.23,1.7 -6.45,3.4 -9.69,5.1 -3.24,1.71 -6.48,3.43 -9.73,5.15 C 75.4,94.38 75.2,87.3 75.06,80.2 74.93,73.07 74.85,65.91 74.79,58.73 Z m 12.13,3.79 c 0.17,3.79 0.35,7.58 0.55,11.36 0.2,3.77 0.41,7.53 0.63,11.28 1.04,-0.53 2.08,-1.07 3.12,-1.61 2.66,-1.38 4.53,-2.64 5.61,-3.8 1.06,-1.15 1.85,-2.6 2.35,-4.36 0.5,-1.76 0.6,-4.24 0.32,-7.45 -0.37,-4.27 -1.28,-6.86 -2.75,-7.78 -1.46,-0.92 -3.73,-0.64 -6.84,0.88 -1,0.49 -1.99,0.99 -2.99,1.48 z M 26.7,61.24 c -2.11,-1.04 -4.22,-2.07 -6.33,-3.09 -2.1,-1.02 -4.21,-2.04 -6.32,-3.05 1.22,-2.91 3.36,-4.79 6.46,-5.62 1.54,-0.41 3.38,-0.53 5.52,-0.32 2.14,0.21 4.59,0.73 7.34,1.6 3.16,0.99 5.87,2.12 8.12,3.36 2.26,1.24 4.08,2.62 5.44,4.13 2.74,3.03 4.05,6.16 3.92,9.33 -0.07,1.85 -0.71,3.32 -1.91,4.39 -1.2,1.07 -2.98,1.73 -5.33,1.98 1.86,1.11 3.28,2.12 4.25,3.03 1.58,1.49 2.79,3.11 3.63,4.88 0.84,1.78 1.22,3.66 1.15,5.64 -0.1,2.48 -0.92,4.55 -2.5,6.19 -1.57,1.62 -3.78,2.42 -6.63,2.4 C 42.08,96.08 40.45,95.84 38.6,95.34 36.76,94.84 34.69,94.1 32.41,93.13 27.98,91.24 24.5,89.35 21.99,87.44 19.48,85.54 17.43,83.49 15.85,81.23 14.29,79 13.12,76.53 12.36,73.8 c 2.26,0.63 4.53,1.27 6.79,1.9 2.26,0.63 4.53,1.27 6.8,1.89 0.43,2.43 1.17,4.29 2.26,5.61 1.07,1.3 2.47,2.33 4.21,3.04 1.8,0.74 3.34,0.81 4.6,0.19 1.25,-0.61 1.91,-1.87 1.99,-3.75 0.08,-1.9 -0.42,-3.6 -1.54,-5.1 -1.11,-1.49 -2.67,-2.6 -4.64,-3.35 -1.06,-0.4 -2.52,-0.73 -4.39,-0.99 0.35,-2.56 0.7,-5.14 1.06,-7.74 0.73,0.35 1.3,0.61 1.72,0.76 1.74,0.62 3.22,0.67 4.42,0.13 1.2,-0.54 1.84,-1.46 1.9,-2.77 0.06,-1.27 -0.35,-2.43 -1.19,-3.47 -0.85,-1.05 -2.04,-1.83 -3.56,-2.34 -1.58,-0.53 -2.87,-0.56 -3.91,-0.08 -1.01,0.48 -1.74,1.66 -2.18,3.51 z m 32.29,55.88 V 51.48 L 6.53,27.7 v 62.06 z m 58.8,-88.64 -52.27,23.03 v 65.67 L 117.8,90.61 V 28.48 Z M 62.04,6.69 12.42,23.21 62.27,45.82 112.12,23.85 Z" id="path2" />
   </g>
</svg>
