<?xml version="1.0" encoding="UTF-8" standalone="no"?>
<svg version="1.1" x="0px" y="0px" viewBox="0 0 50 40" width="50" height="40"
   xmlns="http://www.w3.org/2000/svg"
   xmlns:svg="http://www.w3.org/2000/svg">
   <g transform="matrix(0.05102041,0,0,0.05102041,-0.5102041,-5.5102043)">
      <path fill="#ffffff" d="m 326,582.6 c 7.8,-6.1 16.3,-12.2 25.5,-18.3 9.2,-6.1 18.4,-12.5 27.6,-19.2 9.2,-6.7 18.1,-13.9 26.7,-21.6 8.6,-7.7 16.3,-16.1 23,-25.2 6.7,-9.1 12.1,-19.1 16.1,-30 4,-10.9 6,-23.1 6,-36.5 0,-10.9 -1.7,-22.3 -5.1,-34.3 -3.4,-12 -9.1,-23.1 -17.3,-33.4 -8.1,-10.2 -18.8,-18.7 -32,-25.5 -13.2,-6.7 -29.6,-10.1 -49.3,-10.1 -18.1,0 -34,3.3 -47.6,9.9 -13.7,6.6 -25.2,15.6 -34.8,27.1 -9.5,11.5 -16.7,25.2 -21.4,41.1 -4.8,15.9 -7.1,33.1 -7.1,51.6 H 289 c 0.3,-11.8 1.5,-22.9 3.5,-33.1 2,-10.2 5.1,-19.1 9.2,-26.7 4.1,-7.5 9.7,-13.5 16.6,-17.8 6.9,-4.3 15.6,-6.5 26,-6.5 11.3,0 20.6,2 27.6,6 7.1,4 12.6,9 16.6,14.9 4,5.9 6.7,12.3 8.1,19.2 1.4,6.9 2.1,13.4 2.1,19.5 -0.3,13.1 -3.5,24.7 -9.7,34.8 -6.1,10.1 -14,19.5 -23.5,28.1 -9.5,8.6 -20,16.7 -31.3,24.3 -11.4,7.5 -22.3,15.3 -32.7,23.3 -21.8,15.4 -39,33.5 -51.6,54.3 -12.6,20.8 -19,45.2 -19.3,73 h 220 v -49 h -157 c 2.1,-7.4 6.1,-14.3 12,-20.9 5.8,-6.6 12.6,-12.9 20.4,-19 z M 892,108 H 108 c -54.1,0 -98,43.9 -98,98 v 588 c 0,54.1 43.9,98 98,98 h 784 c 54.1,0 98,-43.9 98,-98 V 206 c 0,-54.1 -43.9,-98 -98,-98 z m 49,661.5 c 0,40.6 -32.9,73.5 -73.5,73.5 h -735 C 91.9,843 59,810.1 59,769.5 v -539 C 59,189.9 91.9,157 132.5,157 h 735 c 40.6,0 73.5,32.9 73.5,73.5 z M 736.4,378.7 c -11.2,-15.5 -25.6,-27.8 -43.2,-36.8 -17.6,-9 -38.5,-13.5 -62.6,-13.5 H 500 v 343 h 130.6 c 24.1,0 45,-4.5 62.6,-13.5 17.6,-9 32,-21.2 43.2,-36.8 11.2,-15.5 19.5,-33.7 24.9,-54.5 5.4,-20.8 8.2,-43.1 8.2,-66.8 0,-23.7 -2.7,-46 -8.2,-66.8 -5.4,-20.6 -13.7,-38.8 -24.9,-54.3 z m -26.2,169.6 c -2.8,14.9 -8.1,27.9 -15.9,38.9 -7.8,11 -18.5,19.7 -32.2,25.9 -13.7,6.2 -31.2,9.4 -52.7,9.4 h -54.2 v -245 h 54.2 c 21.5,0 39,3.1 52.7,9.4 13.7,6.2 24.4,14.9 32.2,25.9 7.8,11 13.1,24 15.9,38.9 2.8,14.9 4.2,31 4.2,48.3 0,17.3 -1.4,33.4 -4.2,48.3 z" id="path4" />
   </g>
</svg>
