<?xml version="1.0" encoding="UTF-8" standalone="no"?>
<svg
   xmlns:dc="http://purl.org/dc/elements/1.1/"
   xmlns:cc="http://creativecommons.org/ns#"
   xmlns:rdf="http://www.w3.org/1999/02/22-rdf-syntax-ns#"
   xmlns:svg="http://www.w3.org/2000/svg"
   xmlns="http://www.w3.org/2000/svg"
   xmlns:sodipodi="http://sodipodi.sourceforge.net/DTD/sodipodi-0.dtd"
   xmlns:inkscape="http://www.inkscape.org/namespaces/inkscape"
   version="1.1"
   id="svg4"
   sodipodi:docname="dobbel-pil.svg"
   width="15.02"
   height="100.00158"
   inkscape:version="1.0.2-2 (e86c870879, 2021-01-15)">
  <metadata
     id="metadata10">
    <rdf:RDF>
      <cc:Work
         rdf:about="">
        <dc:format>image/svg+xml</dc:format>
        <dc:type
           rdf:resource="http://purl.org/dc/dcmitype/StillImage" />
        <dc:title></dc:title>
      </cc:Work>
    </rdf:RDF>
  </metadata>
  <defs
     id="defs8" />
  <sodipodi:namedview
     pagecolor="#ffffff"
     bordercolor="#666666"
     borderopacity="1"
     objecttolerance="10"
     gridtolerance="10"
     guidetolerance="10"
     inkscape:pageopacity="0"
     inkscape:pageshadow="2"
     inkscape:window-width="1920"
     inkscape:window-height="1017"
     id="namedview6"
     showgrid="false"
     fit-margin-top="0"
     fit-margin-left="0"
     fit-margin-right="0"
     fit-margin-bottom="0"
     inkscape:zoom="3.4733333"
     inkscape:cx="190.86573"
     inkscape:cy="88.235512"
     inkscape:window-x="-8"
     inkscape:window-y="-8"
     inkscape:window-maximized="1"
     inkscape:current-layer="svg4" />
  <path
     d="m 5.731316,50.000789 v 17.193947 h -3.755 q -0.592895,0 -1.383421,0.197631 Q 0,67.787631 0,68.380526 l 5.928947,29.051841 q 0.197632,1.18579 0.592895,1.976317 0.592895,0.592896 0.988158,0.592896 0.395263,0 0.988158,-0.592896 0.395263,-0.592896 0.592895,-1.778686 L 15.02,68.775789 V 67.985263 Q 14.822368,67.194736 13.83421,67.194736 H 9.486316 V 50.000789 Z m 3.755,0 v -16.20579 h 4.347894 q 1.18579,0 1.18579,-0.988157 V 32.016315 L 9.091053,3.557368 Q 8.893421,2.371579 8.498158,1.581053 7.905263,0.988158 7.51,0.988158 q -0.395263,0 -0.988158,0.592895 Q 6.324211,1.976316 6.126579,2.569211 5.731316,3.359737 2.865658,17.786842 0,32.213947 0,32.609211 q 0,0.790525 0.790526,0.988157 0.790527,0.197631 1.18579,0.197631 h 3.755 v 16.20579 z M 7.51,0 v 99.803947 z"
     id="path2"
     style="stroke-width:0.197631" />
</svg>
