<?xml version="1.0" encoding="UTF-8"?>
<svg xmlns="http://www.w3.org/2000/svg" width="100" height="97.513062" version="1.1" viewBox="0 0 99.999999 97.513058">
   <path d="m 35.632184,95.088819 q 1.880878,0.417973 3.761755,1.253919 1.671892,0.417973 3.23929,0.626959 1.567398,0.208986 2.821316,0.208986 1.671892,0.417973 3.030303,0.31348 1.358412,-0.104493 4.075236,-0.104493 1.880877,-0.208987 3.761755,-0.626959 L 55.69488,94.043887 48.171369,94.879833 Q 44.6186,94.46186 43.155695,94.043887 41.69279,93.625914 40.125392,93.103448 38.557994,92.580982 37.513062,92.058516 L 36.46813,91.53605 Z m -7.732497,-3.343782 1.671891,0.835945 1.044932,-2.29885 -1.671891,-0.835946 z m 42.006269,1.253918 q 1.671891,-0.626959 3.134796,-1.253918 1.253919,-0.62696 2.612331,-1.253919 1.358411,-0.626959 2.194357,-1.462905 1.253918,-0.835945 2.089864,-1.358412 0.835946,-0.522466 3.134796,-2.403343 1.880878,-1.880878 3.343783,-3.134797 l -1.880878,-1.880877 q -1.462905,1.671891 -2.92581,2.92581 -1.253918,1.044932 -2.61233,2.194357 -1.358411,1.149425 -2.194357,1.567398 -0.835946,0.208986 -1.149425,0.417973 l -0.940439,0.626959 q 0,0 -1.776385,1.149425 -1.776384,1.149426 -3.657262,1.567398 z m -7.732497,2.716823 2.29885,-0.835945 -0.835945,-2.507837 -1.880878,0.626959 z M 95.193312,70.219436 q 0.62696,-1.671892 1.253919,-3.134797 0.417973,-1.253918 0.940439,-2.716823 0.522466,-1.462905 0.940439,-2.716823 0.208986,-1.671892 0.417973,-1.880878 0.208986,-0.208986 0.835948,-4.806688 0,-1.880877 0.20898,-3.552769 h -3.134793 q -0.208986,2.298851 -0.208986,4.179729 -0.417973,1.462905 -0.522466,2.821316 -0.104493,1.358412 -0.731453,2.194358 0,0.835945 -0.522466,2.194357 -0.522466,1.358412 -0.940438,2.716823 -0.417973,1.358412 -0.835946,2.298851 -0.417973,0.940439 0,1.149425 z m -4.179728,7.314524 1.253919,-2.29885 -2.298851,-1.462905 -1.044932,1.462905 z m 8.359457,-38.4535 -1.044932,-3.134796 q -0.417973,-2.089865 -0.940439,-3.23929 -0.522466,-1.149425 -0.940439,-2.403344 -1.253919,-2.507837 -2.92581,-5.642633 -1.253918,-2.089864 -2.716823,-3.761755 l -2.089864,1.880877 q 1.253918,1.671892 2.29885,3.134797 0.626959,1.462904 1.567398,2.716823 0.940439,1.253918 0.940439,2.089864 1.044932,1.462905 1.462905,2.821317 0.417973,1.358411 1.462905,6.165099 z M 81.818182,10.867294 Q 80.14629,9.613375 78.892372,8.7774295 77.429467,7.7324974 76.384535,7.0010449 75.339603,6.2695925 73.876698,5.6426332 72.413793,4.8066876 71.264368,4.3887147 L 67.816092,3.1347962 Q 66.144201,2.507837 63.84535,2.0898642 l -0.417973,2.5078369 q 2.089864,0.6269593 3.761756,1.462905 1.253918,0.4179728 2.089864,0.6269592 0.835946,0.2089864 3.134796,1.6718913 1.253919,0.2089865 1.671891,0.5224661 0.417973,0.3134793 1.044933,0.7314523 0.626959,0.417973 1.880877,1.149425 1.253919,0.731453 3.134796,2.194358 z m 5.642633,5.22466 -1.253918,-1.253918 -1.880878,1.462904 1.253918,1.462905 z M 47.753396,0 q -1.462905,0.2089864 -2.92581,0.2089864 -1.462905,0.2089864 -2.403344,0.3134796 -0.940438,0.1044932 -3.239289,0.5224661 -1.671891,0.4179728 -3.448276,0.8359456 -1.776384,0.4179729 -3.239289,1.2539185 -1.671892,0.4179729 -3.970742,1.2539185 l 1.044932,2.507837 3.761755,-1.6718913 q 3.343783,-0.4179728 6.060606,-1.2539185 0.62696,-0.2089864 1.044932,-0.3134796 0.417973,-0.1044932 1.253919,-0.1044932 0.835946,0 2.298851,-0.4179729 1.462904,-0.4179728 3.970741,-0.6269592 z M 57.157785,0.6269592 55.276907,0.2089864 V 2.507837 l 1.671891,0.2089864 z M 16.196447,12.957158 14.106583,14.838036 q -1.671891,1.462904 -2.403344,2.403343 -0.731452,0.940439 -1.776384,2.194358 -0.8359459,1.044932 -2.0898644,2.716823 -1.2539185,1.671891 -1.8808777,3.030303 -0.6269593,1.358412 -1.6718914,2.821317 l 2.9258098,1.044932 q 1.0449321,-1.462905 1.8808778,-2.92581 0.6269589,-1.253919 1.0449319,-1.880878 l 1.671891,-2.507837 q 0.835946,-1.253918 1.044933,-1.671891 0.208986,-0.417973 0.835945,-1.044932 0.626959,-0.626959 1.671892,-1.567398 1.044932,-0.940439 3.134796,-2.61233 z m 6.896552,-5.433647 -1.462905,1.2539185 1.462905,1.8808775 1.462905,-1.253918 z M 0.522466,40.961338 q -0.20898638,1.462904 -0.41797279,3.134796 -0.20898642,2.716823 0,6.269592 0.20898641,2.716824 0.62695929,6.060606 0.4179728,1.880878 1.044932,4.179729 l 2.7168234,-0.62696 Q 4.0752351,57.889237 3.8662487,56.008359 3.4482759,54.336468 3.3437827,52.76907 3.2392894,51.201672 3.2392894,50.365726 v -8.777429 z m 2.7168234,-8.986416 -1.044932,2.29885 1.8808777,0.835946 1.2539185,-1.880878 z m 4.1797284,41.797283 q 1.2539185,1.671891 1.8808777,3.134796 1.2539185,0.835946 2.0898645,2.089864 0.835945,1.253919 1.880877,2.089864 1.044932,1.253919 2.612331,2.612331 1.567398,1.358411 3.030303,2.61233 1.671891,1.253918 3.343782,2.29885 l 1.253919,-2.507837 q -1.880878,-1.880877 -3.343783,-2.925809 -2.92581,-2.089865 -4.179728,-3.343783 l -1.149425,-1.149425 q 0,0 -0.835946,-0.940439 Q 13.166144,76.802508 12.539185,75.966562 11.912226,75.130617 9.926855,72.3093 Z M 3.8662487,66.248694 4.4932079,67.920585 6.7920585,67.293626 5.9561129,65.412748 Z M 58.411703,77.742947 q -4.806687,1.044932 -8.045977,-0.104493 -3.239289,-1.149426 -5.329153,-2.821317 -2.298851,-2.089864 -3.970742,-4.806688 -2.716824,0.835946 -5.642634,0.835946 -2.507836,-0.208986 -5.53814,-1.253919 -3.030303,-1.044932 -5.956112,-4.597701 -2.507837,-2.925809 -2.716824,-6.060606 -0.208986,-3.134796 0.626959,-5.851619 0.835946,-3.134797 2.92581,-6.060606 -2.089864,-3.970742 -2.716823,-7.941484 -0.417973,-3.552769 0.626959,-7.419018 1.044932,-3.866249 5.433647,-6.792059 3.970742,-2.925809 7.314524,-3.343782 3.343783,-0.417973 5.85162,0.208986 2.92581,0.835946 5.433647,2.507837 3.761755,-3.134796 7.941484,-4.597701 3.552769,-1.253918 8.045977,-0.835946 4.493208,0.417973 9.090909,4.597702 2.29885,2.29885 3.239289,4.91118 0.940439,2.612331 1.149426,4.911181 0.208986,2.716824 -0.208987,5.433647 3.552769,2.089864 5.85162,5.015674 1.880878,2.507837 2.821316,6.060606 0.940439,3.552769 -1.149425,8.15047 -1.671891,3.552769 -4.179728,5.224661 -2.507837,1.671891 -4.806688,2.29885 -2.716823,0.835946 -5.851619,0.417973 -0.417973,2.92581 -1.671892,5.22466 -1.044932,2.089865 -3.134796,3.970742 -2.089864,1.880878 -5.433647,2.716824 z M 57.366771,75.23511 q 2.92581,-0.835946 4.806688,-2.716824 1.880877,-1.880877 2.92581,-4.179728 1.044932,-2.507837 1.671891,-5.433647 2.92581,0.626959 5.642633,0.208987 2.298851,-0.417973 4.806688,-1.880878 2.507837,-1.462905 4.179728,-5.015674 0.208986,-0.835946 0.417973,-2.92581 0.208986,-2.089864 -0.522466,-4.493208 -0.731453,-2.403344 -2.716824,-4.806687 -1.985371,-2.403344 -5.956112,-3.866249 0.835945,-2.92581 0.835945,-5.433647 0,-2.298851 -0.731452,-4.806688 -0.731453,-2.507837 -2.821317,-4.179728 -4.179728,-3.970742 -8.359457,-4.179728 -4.179728,-0.208987 -7.314524,1.044932 -3.761756,1.462905 -7.105538,4.597701 -2.507837,-1.462905 -5.015674,-2.298851 -2.298851,-0.626959 -5.120167,-0.522466 -2.821317,0.104494 -5.747127,2.403344 -4.388715,2.92581 -5.329153,6.374086 -0.940439,3.448276 -0.522466,6.583072 0.626959,3.761756 2.925809,7.523511 -2.29885,2.92581 -3.343782,5.85162 -1.044932,2.507837 -0.940439,5.329153 0.104493,2.821317 2.61233,5.53814 2.716823,2.92581 5.53814,3.761756 2.821317,0.835945 5.120167,0.417973 2.507837,-0.417973 5.015674,-1.671892 1.253919,2.92581 3.343783,5.224661 1.671891,1.880877 4.597701,3.134796 2.92581,1.253918 7.105538,0.417973 z M 58.62069,48.066876 q 0,2.507837 -1.880878,4.284221 -1.880878,1.776385 -4.388715,1.567398 -2.716823,0 -4.597701,-1.776384 -1.880878,-1.776385 -1.880878,-4.284222 0,-2.507837 1.880878,-4.388714 1.880878,-1.880878 4.597701,-1.880878 2.716824,0 4.493208,1.985371 1.776385,1.985371 1.776385,4.493208 z M 100,46.394984 V 44.30512 l -2.298851,0.208987 v 1.880877 z" />
</svg>
